<svg width="76" height="71" viewBox="0 0 76 71" fill="none" xmlns="http://www.w3.org/2000/svg">
<path d="M38 0.52832C28.818 0.52832 21.375 8.19905 21.375 17.662C21.375 25.3123 32.2406 39.2559 36.4035 44.3171C37.2466 45.3425 38.7547 45.3425 39.5965 44.3171C43.7594 39.2559 54.625 25.3123 54.625 17.662C54.625 8.19905 47.182 0.52832 38 0.52832ZM2.65472 29.8936C1.87125 30.2166 1.19963 30.7741 0.726457 31.4942C0.253286 32.2143 0.000259023 33.0639 0 33.9336L0 67.9725C0 69.5118 1.50813 70.5643 2.89486 69.9932L21.1111 61.4481V29.7535C19.9447 27.5805 18.9908 25.4646 18.3073 23.4412L2.65472 29.8936ZM38 49.4369C36.1435 49.4369 34.3874 48.5965 33.1827 47.1306C30.5887 43.9758 27.8297 40.3832 25.3333 36.6981V61.4468L50.6667 70.1496V36.6995C48.1703 40.3832 45.4126 43.9772 42.8173 47.132C41.6126 48.5965 39.8565 49.4369 38 49.4369ZM73.1051 22.4431L54.8889 30.9882V70.151L73.3453 62.5428C74.1289 62.2199 74.8006 61.6624 75.2738 60.9423C75.747 60.2222 75.9999 59.3725 76 58.5028V24.4638C76 22.9245 74.4919 21.872 73.1051 22.4431Z" fill="#228BE6"/>
</svg>
