<svg width="61" height="61" viewBox="0 0 61 61" fill="none" xmlns="http://www.w3.org/2000/svg">
<path d="M27.7913 46.75H33.208V54.875H27.7913V46.75ZM41.333 54.875V60.2917H19.6663V54.875H41.333ZM52.1663 46.75H8.83301C6.67878 46.7479 4.61341 45.8912 3.09014 44.3679C1.56687 42.8446 0.710159 40.7793 0.708008 38.625V8.83337C0.710159 6.67915 1.56687 4.61377 3.09014 3.09051C4.61341 1.56724 6.67878 0.710525 8.83301 0.708374H52.1663C54.3206 0.710525 56.3859 1.56724 57.9092 3.09051C59.4325 4.61377 60.2892 6.67915 60.2913 8.83337V38.625C60.2892 40.7793 59.4325 42.8446 57.9092 44.3679C56.3859 45.8912 54.3206 46.7479 52.1663 46.75ZM8.83301 6.12504C8.11471 6.12504 7.42584 6.41038 6.91793 6.91829C6.41002 7.4262 6.12467 8.11508 6.12467 8.83337V38.625C6.12467 39.3433 6.41002 40.0322 6.91793 40.5401C7.42584 41.048 8.11471 41.3334 8.83301 41.3334H52.1663C52.8846 41.3334 53.5735 41.048 54.0814 40.5401C54.5893 40.0322 54.8747 39.3433 54.8747 38.625V8.83337C54.8747 8.11508 54.5893 7.4262 54.0814 6.91829C53.5735 6.41038 52.8846 6.12504 52.1663 6.12504H8.83301Z" fill="#228BE6"/>
</svg>
